<svg width="36" height="36" viewBox="0 0 36 36" fill="none" xmlns="http://www.w3.org/2000/svg">
<path d="M11 22.04V11.9604C11 11.7058 11.1135 11.4616 11.3154 11.2816C11.5174 11.1015 11.7913 11.0004 12.0769 11.0004H16.0508C16.2968 10.994 16.5378 11.0629 16.7338 11.1957C16.9297 11.3284 17.0687 11.517 17.1277 11.73L17.4615 12.9204H23.9231C24.2087 12.9204 24.4826 13.0215 24.6846 13.2015C24.8865 13.3815 25 13.6257 25 13.8803V22.04C25 22.2947 24.8865 22.5388 24.6846 22.7188C24.4826 22.8989 24.2087 23 23.9231 23H12.0769C11.7913 23 11.5174 22.8989 11.3154 22.7188C11.1135 22.5388 11 22.2947 11 22.04Z" fill="#FFA500" stroke="#FFA500" stroke-linecap="round" stroke-linejoin="round"/>
<circle cx="18" cy="18" r="18" fill="#FFA500" fill-opacity="0.17"/>
</svg>
